<svg width="130" height="73" viewBox="0 0 130 73" fill="none" xmlns="http://www.w3.org/2000/svg">
<path fill-rule="evenodd" clip-rule="evenodd" d="M23.2778 26.2983C23.453 26.8451 25.1228 41.4428 25.2707 41.8306C25.8546 43.3586 28.2173 39.6394 29.0191 39.2943C29.311 39.6123 30.4671 41.6755 30.7746 42.1952C31.0821 42.7148 31.3468 43.1686 31.6543 43.6844C31.9154 44.1972 32.2147 44.6898 32.5495 45.1581L32.8648 45.2435C33.4339 44.9823 33.9852 44.6843 34.5152 44.3515C35.072 44.0567 35.6043 43.7182 36.1071 43.3392L36.1811 43.0484C35.9242 42.2456 34.9589 40.8106 34.4957 40.0234C34.2193 39.558 32.8531 37.359 32.7753 37.0449C33.5927 36.8665 34.4062 36.6105 35.2002 36.4011L36.4069 36.0676C36.9401 35.9202 37.1464 35.4199 36.7961 35.0398C36.4458 34.6598 24.6129 26.1975 24.212 25.7709L23.4802 25.5808L23.2778 26.2983Z" fill="#EF7C00"/>
<path fill-rule="evenodd" clip-rule="evenodd" d="M29.2763 0.00775226C33.7145 0.0130701 38.0935 1.0231 42.0825 2.96154C46.0715 4.89999 49.5664 7.71619 52.3031 11.1975C55.0398 14.6787 56.9468 18.7341 57.8801 23.0572C58.8135 27.3804 58.7487 31.8583 57.6908 36.1529H38.6531C38.7856 35.7461 38.803 35.3109 38.7034 34.8949C38.6038 34.4789 38.3912 34.0983 38.0887 33.7949C37.8197 33.5414 37.5321 33.3081 37.2285 33.0968C36.7458 32.7323 36.2593 32.3755 35.7727 32.0187C34.3663 30.9845 32.9598 29.9606 31.5534 28.9471C30.2066 27.9698 28.8612 26.9912 27.517 26.0113L26.7619 25.4684H47.2553C46.5538 22.0815 44.9027 18.9623 42.4937 16.4727C40.0847 13.9831 37.0165 12.2251 33.6452 11.4029C30.2739 10.5806 26.7377 10.7277 23.4469 11.8271C20.1562 12.9265 17.2458 14.9332 15.0534 17.6142C12.8611 20.2952 11.4767 23.5407 11.061 26.974C10.6452 30.4073 11.2152 33.8877 12.7046 37.0113C14.194 40.135 16.542 42.7737 19.4759 44.6214C22.4098 46.4691 25.8094 47.45 29.2802 47.4502H52.0974C48.9965 51.2934 44.9684 54.2906 40.3895 56.1619C35.8107 58.0332 30.8304 58.7175 25.9141 58.1509C20.9978 57.5843 16.3059 55.7852 12.2767 52.9217C8.24753 50.0583 5.01261 46.2239 2.87419 41.7769C0.73576 37.3298 -0.236387 32.4153 0.0485815 27.4924C0.33355 22.5694 1.86633 17.7988 4.50371 13.6262C7.1411 9.45365 10.797 6.01527 15.1299 3.63234C19.4627 1.24942 24.3311 -0.000283484 29.2802 4.82351e-08L29.2763 0.00775226Z" fill="white"/>
<path fill-rule="evenodd" clip-rule="evenodd" d="M73.6845 47.5354V56.5213H84.6183V53.6669H76.9697V52.3716H81.3759V49.6839H76.9697V48.629H84.5209V47.5354H87.6543V56.5213H90.9045V52.9261H92.2668L96.1164 56.5213H101.013L96.5912 52.9184C97.2242 52.9312 97.8433 52.7333 98.3506 52.356C98.5917 52.1243 98.7791 51.8428 98.8994 51.5312C99.0198 51.2197 99.0703 50.8857 99.0473 50.5527V48.3149C99.0504 48.0536 99.0203 47.793 98.9578 47.5393H102.488V56.5251H105.742V52.8175H111.192C111.906 52.8676 112.615 52.6673 113.196 52.2513C113.438 52.019 113.625 51.7368 113.745 51.4246C113.866 51.1124 113.916 50.7777 113.893 50.4441V48.3188C113.894 48.0576 113.864 47.7972 113.803 47.5431H129.965C129.849 50.2997 128.671 52.9058 126.676 54.8187C124.681 56.7317 122.022 57.8041 119.253 57.8127H58.5938V47.5354H73.6845ZM73.2719 37.6769L66.9896 43.9403C66.6713 44.2514 66.2888 44.4896 65.8686 44.6384C65.4521 44.7846 65.0141 44.8607 64.5725 44.8633C64.1186 44.8679 63.6689 44.7767 63.2529 44.5957C62.8547 44.4265 62.4887 44.1904 62.1709 43.8976C61.8632 43.6074 61.6181 43.2577 61.4508 42.8699C61.2736 42.4815 61.1833 42.0593 61.1861 41.6327C61.1861 41.2141 61.2667 40.7994 61.4235 40.4111C61.5891 39.996 61.8412 39.6206 62.1631 39.3097L68.5154 32.9261L61.8634 26.271C61.5536 25.9707 61.3132 25.6068 61.1588 25.2045C60.8513 24.4018 60.8639 23.5123 61.1939 22.7186C61.3706 22.321 61.6141 21.9563 61.914 21.6404C62.2155 21.3264 62.5732 21.0712 62.9688 20.888C63.37 20.7078 63.8054 20.6152 64.2455 20.6166C64.678 20.6178 65.1071 20.6926 65.5144 20.8376C65.935 20.9962 66.3161 21.2436 66.6315 21.5629L73.2486 28.2024L79.7761 21.6443C80.4219 20.9999 81.2949 20.6325 82.2089 20.6204C82.6603 20.6148 83.1069 20.7144 83.5128 20.9113C83.9124 21.087 84.2754 21.3356 84.5832 21.6443C84.8869 21.9556 85.1262 22.3232 85.2877 22.7263C85.458 23.1412 85.5453 23.5851 85.5446 24.0333C85.5397 24.4304 85.4673 24.8238 85.3306 25.1968C85.1838 25.5831 84.9555 25.9336 84.6611 26.2245L77.9662 32.9532L84.2173 39.1972C84.5412 39.5097 84.798 39.8844 84.9725 40.2986C85.1299 40.6991 85.2117 41.1251 85.2138 41.5552C85.2132 41.9927 85.1232 42.4255 84.9491 42.8272C84.7726 43.2203 84.529 43.5798 84.229 43.8898C83.9261 44.1904 83.568 44.43 83.1742 44.5957C82.773 44.7758 82.3375 44.8671 81.8975 44.8633C81.4617 44.865 81.0296 44.7834 80.6247 44.6228C80.2138 44.4659 79.8411 44.224 79.5309 43.9131L73.2797 37.6769H73.2719ZM90.9084 48.6446V50.2385H95.3651C95.5157 50.2417 95.6661 50.226 95.8128 50.192C95.82 50.1314 95.82 50.0703 95.8128 50.0097V48.8656C95.8202 48.809 95.8202 48.7516 95.8128 48.695C95.6666 48.6578 95.516 48.6409 95.3651 48.6446H90.9084ZM105.75 48.6446V50.1105H110.211C110.362 50.114 110.512 50.0971 110.658 50.0601C110.666 50.0009 110.666 49.941 110.658 49.8817V48.8656C110.666 48.809 110.666 48.7516 110.658 48.695C110.512 48.6578 110.362 48.6409 110.211 48.6446H105.75ZM100.223 29.6722C100.215 28.4714 100.46 27.2822 100.943 26.1818C101.408 25.1195 102.068 24.1528 102.889 23.3313C103.705 22.5048 104.676 21.8459 105.746 21.3922C106.853 20.9192 108.045 20.6802 109.249 20.6903C110.312 20.6784 111.368 20.8638 112.363 21.2371C113.314 21.6039 114.203 22.1112 115.002 22.7418C115.799 22.1129 116.686 21.6057 117.633 21.2371C118.617 20.8659 119.661 20.6804 120.712 20.6903C121.931 20.6842 123.138 20.923 124.262 21.3922C126.472 22.2947 128.253 24.0018 129.244 26.1663C129.751 27.2601 130.009 28.452 130 29.6567V41.5668C130.002 42.0001 129.917 42.4295 129.749 42.8293C129.581 43.2291 129.334 43.5911 129.023 43.8937C128.717 44.1847 128.363 44.4197 127.976 44.5879C127.573 44.7541 127.142 44.8385 126.707 44.8361C126.26 44.8396 125.817 44.7553 125.403 44.5879C125.01 44.4218 124.65 44.1867 124.34 43.8937C124.029 43.5911 123.782 43.2291 123.614 42.8293C123.446 42.4295 123.361 42.0001 123.363 41.5668V29.8855C123.363 29.5735 123.286 29.2662 123.141 28.9897C122.989 28.709 122.786 28.4591 122.542 28.2528C122.293 28.0431 122.012 27.8754 121.709 27.7564C121.415 27.6481 121.104 27.5904 120.79 27.5858C120.229 27.5807 119.686 27.7823 119.264 28.152C118.837 28.5075 118.559 29.0099 118.486 29.5598V35.0979C118.491 35.5448 118.401 35.9876 118.221 36.3971C118.053 36.7872 117.814 37.1434 117.517 37.4481C117.218 37.7508 116.864 37.9943 116.474 38.1656C116.066 38.3396 115.627 38.4293 115.183 38.4293C114.74 38.4293 114.301 38.3396 113.893 38.1656C113.498 37.9897 113.138 37.747 112.826 37.4481C112.526 37.1456 112.285 36.789 112.118 36.3971C111.935 35.9884 111.844 35.5452 111.849 35.0979V30.2191C111.845 30.1153 111.828 30.0125 111.799 29.9127V29.8933C111.803 29.5822 111.739 29.2738 111.612 28.9897C111.475 28.7054 111.285 28.4499 111.051 28.2373C110.833 28.0226 110.577 27.8492 110.296 27.7254C110.008 27.5979 109.697 27.5331 109.382 27.5353C108.816 27.5326 108.267 27.7228 107.825 28.0744C107.388 28.4074 107.077 28.8774 106.941 29.4085C106.941 29.4938 106.972 29.5714 106.984 29.6451C106.996 29.7188 106.984 29.8002 106.984 29.8855L106.879 41.5901C106.867 42.0366 106.772 42.4771 106.599 42.8893C106.349 43.4779 105.93 43.9796 105.395 44.331C104.859 44.6823 104.231 44.8676 103.59 44.8633C103.143 44.8668 102.7 44.7824 102.286 44.6151C101.892 44.4502 101.532 44.2149 101.223 43.9209C100.912 43.6178 100.665 43.2558 100.497 42.8562C100.328 42.4565 100.242 42.0274 100.242 41.5939V29.6722H100.223ZM88.4756 15.1056C88.4707 14.6259 88.5703 14.1509 88.7675 13.7133C88.9559 13.293 89.2197 12.9105 89.546 12.5848C89.8751 12.2538 90.2667 11.9912 90.6983 11.8121C91.13 11.633 91.593 11.541 92.0605 11.5415C92.5274 11.5416 92.9896 11.6338 93.4206 11.8128C93.8515 11.9919 94.2425 12.2543 94.5711 12.5848C94.8985 12.9097 95.1624 13.2924 95.3496 13.7133C95.5392 14.1505 95.637 14.6216 95.637 15.0978C95.637 15.5741 95.5392 16.0452 95.3496 16.4824C95.1646 16.9091 94.9005 17.2973 94.5711 17.6265C94.2425 17.957 93.8515 18.2193 93.4206 18.3984C92.9896 18.5774 92.5274 18.6696 92.0605 18.6697C91.593 18.6702 91.13 18.5782 90.6983 18.3991C90.2667 18.22 89.8751 17.9574 89.546 17.6265C89.2177 17.2964 88.9537 16.9085 88.7675 16.4824C88.5719 16.0497 88.4723 15.5801 88.4756 15.1056ZM88.6819 23.9906C88.6808 23.5517 88.7751 23.1177 88.9583 22.7186C89.1363 22.326 89.3857 21.9697 89.6939 21.6676C90.0105 21.3645 90.3798 21.1213 90.7838 20.9501C91.2054 20.7797 91.6562 20.6928 92.1111 20.6941C92.551 20.6917 92.9868 20.7788 93.3917 20.9501C94.175 21.2969 94.795 21.9299 95.1238 22.7186C95.2861 23.1232 95.3693 23.5549 95.369 23.9906V41.8111C95.3727 42.2528 95.2825 42.6903 95.1043 43.0948C94.9347 43.4863 94.6932 43.8428 94.392 44.1458C94.0898 44.4472 93.7315 44.6869 93.3372 44.8517C92.9366 45.0333 92.5006 45.1247 92.0605 45.1193C91.6181 45.122 91.1802 45.0308 90.776 44.8517C90.3734 44.6873 90.0061 44.4477 89.6939 44.1458C89.3882 43.8417 89.1391 43.4858 88.9583 43.0948C88.7746 42.6917 88.6803 42.2538 88.6819 41.8111V23.9906Z" fill="#EF7C00"/>
<path d="M23.1207 68.8171L23.7838 68.7128C23.821 68.9786 23.9241 69.1822 24.093 69.3238C24.2644 69.4653 24.5028 69.5361 24.8082 69.5361C25.1162 69.5361 25.3447 69.474 25.4937 69.3498C25.6427 69.2232 25.7172 69.0754 25.7172 68.9065C25.7172 68.755 25.6514 68.6358 25.5198 68.5489C25.4279 68.4893 25.1994 68.4136 24.8343 68.3217C24.3426 68.1975 24.0011 68.0907 23.8099 68.0013C23.6211 67.9094 23.4771 67.784 23.3777 67.625C23.2809 67.4636 23.2325 67.286 23.2325 67.0923C23.2325 66.916 23.2722 66.7533 23.3517 66.6043C23.4336 66.4528 23.5441 66.3274 23.6832 66.2281C23.7875 66.1511 23.9291 66.0865 24.1079 66.0344C24.2892 65.9797 24.4829 65.9524 24.689 65.9524C24.9995 65.9524 25.2714 65.9971 25.5049 66.0865C25.7408 66.1759 25.9147 66.2976 26.0264 66.4516C26.1382 66.6031 26.2152 66.8067 26.2574 67.0625L25.6017 67.1519C25.5719 66.9483 25.485 66.7893 25.341 66.6751C25.1994 66.5609 24.9982 66.5037 24.7375 66.5037C24.4295 66.5037 24.2097 66.5546 24.0781 66.6565C23.9465 66.7583 23.8807 66.8775 23.8807 67.0141C23.8807 67.101 23.908 67.1793 23.9626 67.2488C24.0172 67.3208 24.1029 67.3804 24.2197 67.4276C24.2867 67.4524 24.4841 67.5096 24.812 67.599C25.2863 67.7256 25.6166 67.8299 25.8029 67.9119C25.9916 67.9914 26.1394 68.1081 26.2462 68.2621C26.353 68.416 26.4064 68.6073 26.4064 68.8358C26.4064 69.0593 26.3406 69.2704 26.2089 69.4691C26.0798 69.6653 25.8923 69.818 25.6464 69.9273C25.4006 70.0341 25.1224 70.0875 24.812 70.0875C24.2979 70.0875 23.9055 69.9807 23.6348 69.7671C23.3666 69.5535 23.1952 69.2368 23.1207 68.8171ZM34.9267 68.0199C34.9267 67.2873 35.1303 66.7446 35.5376 66.392C35.8779 66.0989 36.2926 65.9524 36.7819 65.9524C37.3258 65.9524 37.7703 66.1312 38.1155 66.4888C38.4607 66.844 38.6333 67.3357 38.6333 67.964C38.6333 68.4732 38.5564 68.8743 38.4024 69.1673C38.2509 69.4579 38.0286 69.6839 37.7356 69.8453C37.445 70.0067 37.1271 70.0875 36.7819 70.0875C36.2281 70.0875 35.7798 69.9099 35.4371 69.5547C35.0968 69.1996 34.9267 68.688 34.9267 68.0199ZM35.6159 68.0199C35.6159 68.5266 35.7264 68.9065 35.9474 69.1599C36.1685 69.4107 36.4466 69.5361 36.7819 69.5361C37.1147 69.5361 37.3916 69.4095 37.6126 69.1561C37.8337 68.9028 37.9442 68.5166 37.9442 67.9976C37.9442 67.5083 37.8324 67.1383 37.6089 66.8874C37.3879 66.6341 37.1122 66.5075 36.7819 66.5075C36.4466 66.5075 36.1685 66.6329 35.9474 66.8837C35.7264 67.1345 35.6159 67.5133 35.6159 68.0199ZM47.556 69.998V66.5633H46.9637V66.0418H47.556V65.6208C47.556 65.3551 47.5796 65.1577 47.6268 65.0285C47.6913 64.8547 47.8043 64.7144 47.9658 64.6076C48.1297 64.4983 48.3582 64.4437 48.6512 64.4437C48.84 64.4437 49.0486 64.466 49.2771 64.5107L49.1765 65.0956C49.0374 65.0707 48.9058 65.0583 48.7816 65.0583C48.578 65.0583 48.4339 65.1018 48.3495 65.1887C48.265 65.2756 48.2228 65.4383 48.2228 65.6767V66.0418H48.9939V66.5633H48.2228V69.998H47.556ZM58.9559 69.3983L59.0528 69.9906C58.864 70.0303 58.6952 70.0502 58.5461 70.0502C58.3028 70.0502 58.114 70.0117 57.9799 69.9347C57.8458 69.8577 57.7514 69.7571 57.6968 69.633C57.6421 69.5063 57.6148 69.2418 57.6148 68.8395V66.5633H57.1231V66.0418H57.6148V65.0621L58.2817 64.6597V66.0418H58.9559V66.5633H58.2817V68.8767C58.2817 69.068 58.2928 69.1909 58.3152 69.2455C58.34 69.3002 58.3785 69.3436 58.4307 69.3759C58.4853 69.4082 58.5623 69.4244 58.6616 69.4244C58.7361 69.4244 58.8342 69.4157 58.9559 69.3983ZM68.3182 69.998L67.1074 66.0418H67.8003L68.4299 68.3254L68.6646 69.1748C68.6745 69.1325 68.7428 68.8606 68.8695 68.3589L69.4991 66.0418H70.1882L70.7806 68.3366L70.978 69.0928L71.2052 68.3291L71.8832 66.0418H72.5352L71.2984 69.998H70.6017L69.9722 67.6288L69.8194 66.9545L69.0185 69.998H68.3182ZM83.6557 69.51C83.4074 69.7211 83.1677 69.8701 82.9367 69.9571C82.7083 70.044 82.4624 70.0875 82.1991 70.0875C81.7645 70.0875 81.4305 69.9819 81.197 69.7708C80.9636 69.5572 80.8469 69.2853 80.8469 68.955C80.8469 68.7613 80.8903 68.5849 80.9772 68.426C81.0666 68.2646 81.1821 68.1354 81.3237 68.0386C81.4677 67.9417 81.6292 67.8684 81.808 67.8188C81.9396 67.784 82.1383 67.7505 82.404 67.7182C82.9454 67.6536 83.344 67.5766 83.5998 67.4872C83.6023 67.3953 83.6036 67.337 83.6036 67.3121C83.6036 67.0389 83.5402 66.8465 83.4136 66.7347C83.2422 66.5832 82.9876 66.5075 82.6499 66.5075C82.3345 66.5075 82.101 66.5633 81.9495 66.6751C81.8005 66.7844 81.69 66.9793 81.618 67.26L80.9623 67.1706C81.0219 66.8899 81.12 66.6639 81.2566 66.4926C81.3932 66.3187 81.5907 66.1858 81.849 66.094C82.1072 65.9996 82.4065 65.9524 82.7467 65.9524C83.0845 65.9524 83.3589 65.9921 83.57 66.0716C83.7811 66.1511 83.9364 66.2517 84.0357 66.3734C84.135 66.4926 84.2046 66.6441 84.2443 66.8278C84.2667 66.9421 84.2778 67.1482 84.2778 67.4462V68.3403C84.2778 68.9637 84.2915 69.3585 84.3188 69.5249C84.3486 69.6888 84.4057 69.8466 84.4902 69.998H83.7898C83.7203 69.859 83.6756 69.6963 83.6557 69.51ZM83.5998 68.0125C83.3565 68.1118 82.9914 68.1963 82.5046 68.2658C82.2289 68.3055 82.034 68.3502 81.9197 68.3999C81.8055 68.4496 81.7173 68.5228 81.6552 68.6197C81.5932 68.7141 81.5621 68.8196 81.5621 68.9363C81.5621 69.1152 81.6292 69.2642 81.7633 69.3834C81.8999 69.5026 82.0986 69.5622 82.3593 69.5622C82.6176 69.5622 82.8473 69.5063 83.0485 69.3946C83.2497 69.2803 83.3974 69.1251 83.4918 68.9289C83.5638 68.7774 83.5998 68.5539 83.5998 68.2583V68.0125ZM93.2862 69.998V66.0418H93.8897V66.6416C94.0436 66.3609 94.1852 66.1759 94.3143 66.0865C94.446 65.9971 94.59 65.9524 94.7465 65.9524C94.9725 65.9524 95.2022 66.0244 95.4356 66.1685L95.2047 66.7906C95.0408 66.6937 94.8769 66.6453 94.7129 66.6453C94.5664 66.6453 94.4348 66.69 94.3181 66.7794C94.2013 66.8663 94.1181 66.988 94.0685 67.1445C93.994 67.3829 93.9567 67.6437 93.9567 67.9268V69.998H93.2862ZM106.515 68.724L107.208 68.8097C107.099 69.2145 106.896 69.5287 106.601 69.7522C106.305 69.9757 105.928 70.0875 105.468 70.0875C104.89 70.0875 104.43 69.9099 104.09 69.5547C103.752 69.1971 103.583 68.6967 103.583 68.0535C103.583 67.3879 103.755 66.8713 104.098 66.5037C104.44 66.1362 104.885 65.9524 105.431 65.9524C105.96 65.9524 106.392 66.1325 106.728 66.4926C107.063 66.8527 107.23 67.3593 107.23 68.0125C107.23 68.0522 107.229 68.1118 107.227 68.1913H104.276C104.301 68.6259 104.424 68.9587 104.645 69.1897C104.866 69.4206 105.142 69.5361 105.472 69.5361C105.718 69.5361 105.928 69.4715 106.102 69.3424C106.276 69.2133 106.413 69.0071 106.515 68.724ZM104.314 67.6399H106.523C106.493 67.3072 106.408 67.0576 106.269 66.8912C106.056 66.6329 105.779 66.5037 105.439 66.5037C105.131 66.5037 104.871 66.6068 104.66 66.8129C104.451 67.0191 104.336 67.2947 104.314 67.6399Z" fill="white"/>
</svg>
